#!OML:ASF X:\für Bonn\!DataBase\2005_08_10_Bjorn_Final\c3d\bjorn.ASF
:FULLY-SPECIFIED
:DEGREES
208
root -16.7564 19.2032 1.63578 1082.81 234.07 -1.18738
lowerback -2.9177 2.13723 -9.84414
upperback 9.40041 3.51185 -5.15759
thorax 11.5895 0.782845 0.238614
lowerneck 3.0673 -9.62071 2.41571
upperneck 6.7142 -14.431 14.0462
head 2.68724 -7.18345 3.97532
rclavicle -1.43125e-013 -5.56597e-014
rhumerus -22.2994 20.6925 -89.9747
rradius 33.0955
rwrist 2.82849
rhand -0.921686 0.474184
rfingers 7.12502
rthumb 24.7073 -27.9505
lclavicle -1.43125e-013 -5.56597e-014
lhumerus -16.1289 -12.6657 82.3018
lradius 18.1135
lwrist -29.0188
lhand -12.9624 -3.99147
lfingers 7.12502
lthumb 13.1294 25.5752
rfemur -27.7819 -3.20296 14.7044
rtibia 28.1318
rfoot -2.9083 24.7181
rtoes -9.14705
lfemur -4.93652 2.17759 -17.5452
ltibia 23.7878
lfoot -12.8513 -15.6158
ltoes -2.03298
209
root -16.6912 19.2112 1.66424 1082.68 232.963 -1.02695
lowerback -2.94717 2.06929 -9.84734
upperback 9.38535 3.41602 -5.1341
thorax 11.595 0.733009 0.255273
lowerneck 3.28038 -9.66999 2.09486
upperneck 6.64813 -14.5571 14.8025
head 2.41439 -7.23879 3.84542
rclavicle 1.59028e-015 -6.20208e-014
rhumerus -22.3844 16.6733 -90.0967
rradius 30.1192
rwrist 5.23124
rhand -1.2353 0.311026
rfingers 7.12502
rthumb 24.4067 -28.1545
lclavicle 1.59028e-015 -6.20208e-014
lhumerus -16.5099 -12.4989 82.3052
lradius 18.2377
lwrist -29.1097
lhand -13.0067 -3.86015
lfingers 7.12502
lthumb 13.0867 25.7093
rfemur -27.4285 -2.91727 14.6791
rtibia 28.5516
rfoot -3.24698 24.2152
rtoes -9.31592
lfemur -5.03132 2.86533 -17.4296
ltibia 23.7619
lfoot -12.7865 -15.2583
ltoes -2.27381
210
root -16.6272 19.2193 1.69067 1082.53 231.84 -0.838142
lowerback -2.98288 1.99357 -9.82653
upperback 9.36142 3.30876 -5.08574
thorax 11.5939 0.680249 0.285318
lowerneck 3.55433 -9.73907 1.83136
upperneck 6.3786 -14.6488 15.1638
head 2.3386 -7.32005 4.01028
rclavicle 2.62396e-014 2.22639e-014
rhumerus -22.4043 12.1991 -89.8187
rradius 27.1661
rwrist 8.17623
rhand -1.48467 0.427407
rfingers 7.12502
rthumb 24.1676 -28.0701
lclavicle 2.62396e-014 2.22639e-014
lhumerus -16.9214 -12.0704 82.3252
lradius 18.3735
lwrist -29.3182
lhand -13.1076 -3.72766
lfingers 7.12502
lthumb 12.9894 25.848
rfemur -27.0772 -2.71721 14.7063
rtibia 28.9999
rfoot -3.744 23.71
rtoes -9.96653
lfemur -5.10124 3.52655 -17.2903
ltibia 23.7166
lfoot -12.7407 -14.8198
ltoes -2.65786
211
root -16.5654 19.2301 1.71615 1082.4 230.721 -0.660418
lowerback -3.02138 1.90014 -9.79764
upperback 9.32389 3.17745 -5.01173
thorax 11.5793 0.617585 0.336774
lowerneck 3.74781 -9.81257 1.53347
upperneck 6.24278 -14.7678 15.4525
head 2.31579 -7.40403 4.14949
rclavicle 9.06458e-014 -7.95139e-015
rhumerus -22.5943 8.26044 -89.4272
rradius 24.3962
rwrist 9.78011
rhand -2.47277 0.518273
rfingers 7.12502
rthumb 23.2199 -28.1019
lclavicle 9.06458e-014 -7.95139e-015
lhumerus -17.3883 -11.3299 82.3797
lradius 18.5358
lwrist -29.7543
lhand -13.1927 -3.5032
lfingers 7.12502
lthumb 12.9074 26.0776
rfemur -26.728 -2.68219 14.7523
rtibia 29.4739
rfoot -4.25163 23.2958
rtoes -10.6262
lfemur -5.15371 4.10563 -17.1535
ltibia 23.6573
lfoot -12.6818 -14.3579
ltoes -2.85157
212
root -16.5031 19.24 1.74084 1082.29 229.594 -0.497004
lowerback -3.05413 1.8042 -9.73933
upperback 9.29476 3.03992 -4.95118
thorax 11.5734 0.554322 0.356145
lowerneck 3.79378 -9.92413 1.28065
upperneck 6.18931 -14.9581 15.7007
head 2.34241 -7.51127 4.25597
rclavicle -8.26944e-014 3.65764e-014
rhumerus -22.812 4.41257 -88.853
rradius 21.6931
rwrist 11.1084
rhand -3.69378 0.579987
rfingers 7.12502
rthumb 22.048 -28.1832
lclavicle -8.26944e-014 3.65764e-014
lhumerus -17.8716 -10.8275 82.4746
lradius 18.7357
lwrist -29.485
lhand -13.4233 -3.28102
lfingers 7.12502
lthumb 12.6852 26.3137
rfemur -26.3998 -2.81451 14.8363
rtibia 29.9859
rfoot -4.81935 22.9172
rtoes -11.6952
lfemur -5.2107 4.65437 -17.023
ltibia 23.5832
lfoot -12.6355 -13.8421
ltoes -3.23696
213
root -16.4422 19.249 1.76425 1082.15 228.47 -0.309773
lowerback -3.05076 1.69017 -9.65161
upperback 9.25271 2.86995 -4.87492
thorax 11.5326 0.4799 0.372648
lowerneck 3.75465 -10.0328 1.02137
upperneck 6.24524 -15.1716 15.9346
head 2.41809 -7.62065 4.34939
rclavicle 2.3059e-014 9.54166e-015
rhumerus -23.0901 0.165978 -87.9082
rradius 18.939
rwrist 13.3249
rhand -5.00179 0.695138
rfingers 7.12502
rthumb 20.7917 -28.2109
lclavicle 2.3059e-014 9.54166e-015
lhumerus -18.3589 -10.0927 82.5734
lradius 18.8488
lwrist -29.2709
lhand -13.7336 -3.10125
lfingers 7.12502
lthumb 12.3859 26.5118
rfemur -26.01 -2.96719 14.9177
rtibia 30.5141
rfoot -5.41945 22.4887
rtoes -12.1868
lfemur -5.23994 5.1722 -16.8654
ltibia 23.5165
lfoot -12.5798 -13.3162
ltoes -3.43363
214
root -16.3805 19.2559 1.78575 1082.06 227.33 -0.192022
lowerback -3.07569 1.58132 -9.60355
upperback 9.23924 2.71421 -4.80011
thorax 11.5407 0.405022 0.409905
lowerneck 3.6216 -10.1808 0.819469
upperneck 6.34988 -15.4484 16.1289
head 2.52338 -7.75303 4.41218
rclavicle 7.95139e-016 -3.81667e-014
rhumerus -23.4149 -4.83009 -86.4277
rradius 16.2534
rwrist 17.0936
rhand -6.10219 0.825019
rfingers 7.12502
rthumb 19.7341 -28.1933
lclavicle 7.95139e-016 -3.81667e-014
lhumerus -18.7882 -9.454 82.6654
lradius 18.945
lwrist -28.939
lhand -14.1177 -3.04257
lfingers 7.12502
lthumb 12.0156 26.5925
rfemur -25.5862 -3.01403 14.9086
rtibia 31.0618
rfoot -5.98201 21.8942
rtoes -11.9727
lfemur -5.26252 5.65774 -16.7465
ltibia 23.4703
lfoot -12.5636 -12.7328
ltoes -3.78086
215
root -16.3201 19.2617 1.80643 1082 226.196 -0.077909
lowerback -3.08666 1.46113 -9.51552
upperback 9.19475 2.53876 -4.74642
thorax 11.5078 0.328549 0.400852
lowerneck 3.46975 -10.3561 0.664026
upperneck 6.51112 -15.7763 16.3046
head 2.64967 -7.90694 4.45677
rclavicle -7.95139e-015 3.18055e-014
rhumerus -24.0138 -10.8877 -84.2947
rradius 13.7991
rwrist 22.7657
rhand -6.81319 0.766893
rfingers 7.12502
rthumb 19.0505 -28.3201
lclavicle -7.95139e-015 3.18055e-014
lhumerus -19.2991 -9.16462 82.7827
lradius 19.0806
lwrist -28.2234
lhand -14.5784 -2.94194
lfingers 7.12502
lthumb 11.5713 26.7186
rfemur -25.1676 -3.08987 14.8894
rtibia 31.5993
rfoot -6.59829 21.2555
rtoes -11.7995
lfemur -5.32767 6.09649 -16.6321
ltibia 23.4592
lfoot -12.5674 -12.1252
ltoes -4.1735
